ISO-10303-21;
HEADER;
/* Generated by software containing ST-Developer
 * from STEP Tools, Inc. (www.steptools.com) 
 */
/* OPTION: using custom renumber hook */

FILE_DESCRIPTION(
/* description */ ('STEP AP242 Edition 2',
'CAx-IF Rec.Pracs.---Representation and Presentation of Product Manufa
cturing Information (PMI)---4.0---2014-10-13',
'CAx-IF Rec.Pracs.---3D Tessellated Geometry---0.4---2014-09-14','2;1',
'CAx-IF Rec.Pracs.---User Defined Attributes---1.5---2016-08-15'),
/* implementation_level */ '2;1');

FILE_NAME(
/* name */ 'Part Studio 1',
/* time_stamp */ '2026-05-24T19:26:28Z',
/* author */ (''),
/* organization */ (''),
/* preprocessor_version */ 'ST-DEVELOPER v20',
/* originating_system */ 'ONSHAPE BY PTC INC, 1.215',
/* authorisation */ '  ');

FILE_SCHEMA (('AP242_MANAGED_MODEL_BASED_3D_ENGINEERING_MIM_LF { 1 0 10303 442 3 1 4 }'));
ENDSEC;

DATA;
#10=SHAPE_REPRESENTATION_RELATIONSHIP('','',#522,#12);
#11=SHAPE_REPRESENTATION_RELATIONSHIP('','',#523,#13);
#12=ADVANCED_BREP_SHAPE_REPRESENTATION('',(#518),#823);
#13=ADVANCED_BREP_SHAPE_REPRESENTATION('',(#519),#824);
#14=CYLINDRICAL_SURFACE('',#539,0.00619089777099296);
#15=CIRCLE('',#529,0.00619089777099296);
#16=CIRCLE('',#534,0.00619089777099296);
#17=ORIENTED_EDGE('',*,*,#147,.F.);
#18=ORIENTED_EDGE('',*,*,#148,.F.);
#19=ORIENTED_EDGE('',*,*,#149,.T.);
#20=ORIENTED_EDGE('',*,*,#150,.F.);
#21=ORIENTED_EDGE('',*,*,#151,.F.);
#22=ORIENTED_EDGE('',*,*,#152,.F.);
#23=ORIENTED_EDGE('',*,*,#153,.T.);
#24=ORIENTED_EDGE('',*,*,#154,.T.);
#25=ORIENTED_EDGE('',*,*,#155,.F.);
#26=ORIENTED_EDGE('',*,*,#156,.T.);
#27=ORIENTED_EDGE('',*,*,#157,.T.);
#28=ORIENTED_EDGE('',*,*,#158,.T.);
#29=ORIENTED_EDGE('',*,*,#159,.F.);
#30=ORIENTED_EDGE('',*,*,#160,.T.);
#31=ORIENTED_EDGE('',*,*,#151,.T.);
#32=ORIENTED_EDGE('',*,*,#161,.T.);
#33=ORIENTED_EDGE('',*,*,#162,.F.);
#34=ORIENTED_EDGE('',*,*,#163,.F.);
#35=ORIENTED_EDGE('',*,*,#164,.T.);
#36=ORIENTED_EDGE('',*,*,#159,.T.);
#37=ORIENTED_EDGE('',*,*,#165,.T.);
#38=ORIENTED_EDGE('',*,*,#166,.F.);
#39=ORIENTED_EDGE('',*,*,#167,.F.);
#40=ORIENTED_EDGE('',*,*,#168,.F.);
#41=ORIENTED_EDGE('',*,*,#156,.F.);
#42=ORIENTED_EDGE('',*,*,#169,.F.);
#43=ORIENTED_EDGE('',*,*,#170,.F.);
#44=ORIENTED_EDGE('',*,*,#171,.T.);
#45=ORIENTED_EDGE('',*,*,#154,.F.);
#46=ORIENTED_EDGE('',*,*,#172,.T.);
#47=ORIENTED_EDGE('',*,*,#173,.T.);
#48=ORIENTED_EDGE('',*,*,#174,.T.);
#49=ORIENTED_EDGE('',*,*,#175,.T.);
#50=ORIENTED_EDGE('',*,*,#176,.T.);
#51=ORIENTED_EDGE('',*,*,#177,.T.);
#52=ORIENTED_EDGE('',*,*,#178,.T.);
#53=ORIENTED_EDGE('',*,*,#165,.F.);
#54=ORIENTED_EDGE('',*,*,#161,.F.);
#55=ORIENTED_EDGE('',*,*,#150,.T.);
#56=ORIENTED_EDGE('',*,*,#149,.F.);
#57=ORIENTED_EDGE('',*,*,#179,.T.);
#58=ORIENTED_EDGE('',*,*,#180,.T.);
#59=ORIENTED_EDGE('',*,*,#166,.T.);
#60=ORIENTED_EDGE('',*,*,#181,.T.);
#61=ORIENTED_EDGE('',*,*,#182,.T.);
#62=ORIENTED_EDGE('',*,*,#163,.T.);
#63=ORIENTED_EDGE('',*,*,#178,.F.);
#64=ORIENTED_EDGE('',*,*,#183,.F.);
#65=ORIENTED_EDGE('',*,*,#175,.F.);
#66=ORIENTED_EDGE('',*,*,#184,.F.);
#67=ORIENTED_EDGE('',*,*,#185,.T.);
#68=ORIENTED_EDGE('',*,*,#186,.T.);
#69=ORIENTED_EDGE('',*,*,#174,.F.);
#70=ORIENTED_EDGE('',*,*,#187,.F.);
#71=ORIENTED_EDGE('',*,*,#188,.T.);
#72=ORIENTED_EDGE('',*,*,#184,.T.);
#73=ORIENTED_EDGE('',*,*,#177,.F.);
#74=ORIENTED_EDGE('',*,*,#189,.F.);
#75=ORIENTED_EDGE('',*,*,#190,.T.);
#76=ORIENTED_EDGE('',*,*,#187,.T.);
#77=ORIENTED_EDGE('',*,*,#176,.F.);
#78=ORIENTED_EDGE('',*,*,#186,.F.);
#79=ORIENTED_EDGE('',*,*,#191,.T.);
#80=ORIENTED_EDGE('',*,*,#189,.T.);
#81=ORIENTED_EDGE('',*,*,#185,.F.);
#82=ORIENTED_EDGE('',*,*,#188,.F.);
#83=ORIENTED_EDGE('',*,*,#190,.F.);
#84=ORIENTED_EDGE('',*,*,#191,.F.);
#85=ORIENTED_EDGE('',*,*,#183,.T.);
#86=ORIENTED_EDGE('',*,*,#162,.T.);
#87=ORIENTED_EDGE('',*,*,#164,.F.);
#88=ORIENTED_EDGE('',*,*,#182,.F.);
#89=ORIENTED_EDGE('',*,*,#192,.T.);
#90=ORIENTED_EDGE('',*,*,#193,.T.);
#91=ORIENTED_EDGE('',*,*,#152,.T.);
#92=ORIENTED_EDGE('',*,*,#160,.F.);
#93=ORIENTED_EDGE('',*,*,#192,.F.);
#94=ORIENTED_EDGE('',*,*,#181,.F.);
#95=ORIENTED_EDGE('',*,*,#173,.F.);
#96=ORIENTED_EDGE('',*,*,#194,.T.);
#97=ORIENTED_EDGE('',*,*,#172,.F.);
#98=ORIENTED_EDGE('',*,*,#153,.F.);
#99=ORIENTED_EDGE('',*,*,#193,.F.);
#100=ORIENTED_EDGE('',*,*,#194,.F.);
#101=ORIENTED_EDGE('',*,*,#179,.F.);
#102=ORIENTED_EDGE('',*,*,#158,.F.);
#103=ORIENTED_EDGE('',*,*,#195,.T.);
#104=ORIENTED_EDGE('',*,*,#196,.T.);
#105=ORIENTED_EDGE('',*,*,#180,.F.);
#106=ORIENTED_EDGE('',*,*,#196,.F.);
#107=ORIENTED_EDGE('',*,*,#197,.T.);
#108=ORIENTED_EDGE('',*,*,#167,.T.);
#109=ORIENTED_EDGE('',*,*,#195,.F.);
#110=ORIENTED_EDGE('',*,*,#157,.F.);
#111=ORIENTED_EDGE('',*,*,#168,.T.);
#112=ORIENTED_EDGE('',*,*,#197,.F.);
#113=ORIENTED_EDGE('',*,*,#155,.T.);
#114=ORIENTED_EDGE('',*,*,#198,.F.);
#115=ORIENTED_EDGE('',*,*,#199,.F.);
#116=ORIENTED_EDGE('',*,*,#169,.T.);
#117=ORIENTED_EDGE('',*,*,#148,.T.);
#118=ORIENTED_EDGE('',*,*,#200,.F.);
#119=ORIENTED_EDGE('',*,*,#201,.F.);
#120=ORIENTED_EDGE('',*,*,#198,.T.);
#121=ORIENTED_EDGE('',*,*,#147,.T.);
#122=ORIENTED_EDGE('',*,*,#171,.F.);
#123=ORIENTED_EDGE('',*,*,#202,.F.);
#124=ORIENTED_EDGE('',*,*,#200,.T.);
#125=ORIENTED_EDGE('',*,*,#170,.T.);
#126=ORIENTED_EDGE('',*,*,#199,.T.);
#127=ORIENTED_EDGE('',*,*,#201,.T.);
#128=ORIENTED_EDGE('',*,*,#202,.T.);
#129=ORIENTED_EDGE('',*,*,#203,.T.);
#130=ORIENTED_EDGE('',*,*,#204,.F.);
#131=ORIENTED_EDGE('',*,*,#205,.F.);
#132=ORIENTED_EDGE('',*,*,#206,.T.);
#133=ORIENTED_EDGE('',*,*,#207,.F.);
#134=ORIENTED_EDGE('',*,*,#206,.F.);
#135=ORIENTED_EDGE('',*,*,#208,.T.);
#136=ORIENTED_EDGE('',*,*,#209,.T.);
#137=ORIENTED_EDGE('',*,*,#210,.T.);
#138=ORIENTED_EDGE('',*,*,#209,.F.);
#139=ORIENTED_EDGE('',*,*,#211,.F.);
#140=ORIENTED_EDGE('',*,*,#204,.T.);
#141=ORIENTED_EDGE('',*,*,#205,.T.);
#142=ORIENTED_EDGE('',*,*,#211,.T.);
#143=ORIENTED_EDGE('',*,*,#208,.F.);
#144=ORIENTED_EDGE('',*,*,#203,.F.);
#145=ORIENTED_EDGE('',*,*,#207,.T.);
#146=ORIENTED_EDGE('',*,*,#210,.F.);
#147=EDGE_CURVE('',#212,#213,#255,.T.);
#148=EDGE_CURVE('',#214,#212,#256,.T.);
#149=EDGE_CURVE('',#214,#215,#257,.T.);
#150=EDGE_CURVE('',#216,#215,#258,.T.);
#151=EDGE_CURVE('',#217,#216,#259,.T.);
#152=EDGE_CURVE('',#218,#217,#260,.T.);
#153=EDGE_CURVE('',#218,#219,#261,.T.);
#154=EDGE_CURVE('',#219,#213,#262,.T.);
#155=EDGE_CURVE('',#220,#214,#263,.T.);
#156=EDGE_CURVE('',#220,#221,#264,.T.);
#157=EDGE_CURVE('',#221,#222,#265,.T.);
#158=EDGE_CURVE('',#222,#214,#266,.T.);
#159=EDGE_CURVE('',#223,#224,#267,.T.);
#160=EDGE_CURVE('',#223,#217,#268,.T.);
#161=EDGE_CURVE('',#216,#224,#269,.T.);
#162=EDGE_CURVE('',#225,#225,#15,.T.);
#163=EDGE_CURVE('',#226,#227,#270,.T.);
#164=EDGE_CURVE('',#226,#223,#271,.T.);
#165=EDGE_CURVE('',#224,#227,#272,.T.);
#166=EDGE_CURVE('',#228,#229,#273,.T.);
#167=EDGE_CURVE('',#230,#228,#274,.T.);
#168=EDGE_CURVE('',#221,#230,#275,.T.);
#169=EDGE_CURVE('',#231,#220,#276,.T.);
#170=EDGE_CURVE('',#232,#231,#277,.T.);
#171=EDGE_CURVE('',#232,#213,#278,.T.);
#172=EDGE_CURVE('',#219,#233,#279,.T.);
#173=EDGE_CURVE('',#233,#229,#280,.T.);
#174=EDGE_CURVE('',#234,#235,#281,.T.);
#175=EDGE_CURVE('',#235,#236,#282,.T.);
#176=EDGE_CURVE('',#236,#237,#283,.T.);
#177=EDGE_CURVE('',#237,#234,#284,.T.);
#178=EDGE_CURVE('',#215,#227,#285,.T.);
#179=EDGE_CURVE('',#214,#238,#286,.T.);
#180=EDGE_CURVE('',#238,#228,#287,.T.);
#181=EDGE_CURVE('',#229,#239,#288,.T.);
#182=EDGE_CURVE('',#239,#226,#289,.T.);
#183=EDGE_CURVE('',#240,#240,#16,.T.);
#184=EDGE_CURVE('',#241,#235,#290,.T.);
#185=EDGE_CURVE('',#241,#242,#291,.T.);
#186=EDGE_CURVE('',#242,#236,#292,.T.);
#187=EDGE_CURVE('',#243,#234,#293,.T.);
#188=EDGE_CURVE('',#243,#241,#294,.T.);
#189=EDGE_CURVE('',#244,#237,#295,.T.);
#190=EDGE_CURVE('',#244,#243,#296,.T.);
#191=EDGE_CURVE('',#242,#244,#297,.T.);
#192=EDGE_CURVE('',#239,#245,#298,.T.);
#193=EDGE_CURVE('',#245,#218,#299,.T.);
#194=EDGE_CURVE('',#233,#245,#300,.T.);
#195=EDGE_CURVE('',#222,#246,#301,.T.);
#196=EDGE_CURVE('',#246,#238,#302,.T.);
#197=EDGE_CURVE('',#246,#230,#303,.T.);
#198=EDGE_CURVE('',#247,#214,#304,.T.);
#199=EDGE_CURVE('',#231,#247,#305,.T.);
#200=EDGE_CURVE('',#248,#212,#306,.T.);
#201=EDGE_CURVE('',#247,#248,#307,.T.);
#202=EDGE_CURVE('',#248,#232,#308,.T.);
#203=EDGE_CURVE('',#249,#250,#309,.T.);
#204=EDGE_CURVE('',#251,#250,#310,.T.);
#205=EDGE_CURVE('',#252,#251,#311,.T.);
#206=EDGE_CURVE('',#252,#249,#312,.T.);
#207=EDGE_CURVE('',#249,#253,#313,.T.);
#208=EDGE_CURVE('',#252,#254,#314,.T.);
#209=EDGE_CURVE('',#254,#253,#315,.T.);
#210=EDGE_CURVE('',#250,#253,#316,.T.);
#211=EDGE_CURVE('',#251,#254,#317,.T.);
#212=VERTEX_POINT('',#686);
#213=VERTEX_POINT('',#687);
#214=VERTEX_POINT('',#689);
#215=VERTEX_POINT('',#691);
#216=VERTEX_POINT('',#693);
#217=VERTEX_POINT('',#695);
#218=VERTEX_POINT('',#697);
#219=VERTEX_POINT('',#699);
#220=VERTEX_POINT('',#703);
#221=VERTEX_POINT('',#705);
#222=VERTEX_POINT('',#707);
#223=VERTEX_POINT('',#711);
#224=VERTEX_POINT('',#712);
#225=VERTEX_POINT('',#717);
#226=VERTEX_POINT('',#719);
#227=VERTEX_POINT('',#720);
#228=VERTEX_POINT('',#725);
#229=VERTEX_POINT('',#726);
#230=VERTEX_POINT('',#728);
#231=VERTEX_POINT('',#731);
#232=VERTEX_POINT('',#733);
#233=VERTEX_POINT('',#736);
#234=VERTEX_POINT('',#739);
#235=VERTEX_POINT('',#740);
#236=VERTEX_POINT('',#742);
#237=VERTEX_POINT('',#744);
#238=VERTEX_POINT('',#750);
#239=VERTEX_POINT('',#753);
#240=VERTEX_POINT('',#757);
#241=VERTEX_POINT('',#759);
#242=VERTEX_POINT('',#761);
#243=VERTEX_POINT('',#765);
#244=VERTEX_POINT('',#769);
#245=VERTEX_POINT('',#777);
#246=VERTEX_POINT('',#784);
#247=VERTEX_POINT('',#791);
#248=VERTEX_POINT('',#795);
#249=VERTEX_POINT('',#803);
#250=VERTEX_POINT('',#804);
#251=VERTEX_POINT('',#806);
#252=VERTEX_POINT('',#808);
#253=VERTEX_POINT('',#812);
#254=VERTEX_POINT('',#814);
#255=LINE('',#685,#318);
#256=LINE('',#688,#319);
#257=LINE('',#690,#320);
#258=LINE('',#692,#321);
#259=LINE('',#694,#322);
#260=LINE('',#696,#323);
#261=LINE('',#698,#324);
#262=LINE('',#700,#325);
#263=LINE('',#702,#326);
#264=LINE('',#704,#327);
#265=LINE('',#706,#328);
#266=LINE('',#708,#329);
#267=LINE('',#710,#330);
#268=LINE('',#713,#331);
#269=LINE('',#714,#332);
#270=LINE('',#718,#333);
#271=LINE('',#721,#334);
#272=LINE('',#722,#335);
#273=LINE('',#724,#336);
#274=LINE('',#727,#337);
#275=LINE('',#729,#338);
#276=LINE('',#730,#339);
#277=LINE('',#732,#340);
#278=LINE('',#734,#341);
#279=LINE('',#735,#342);
#280=LINE('',#737,#343);
#281=LINE('',#738,#344);
#282=LINE('',#741,#345);
#283=LINE('',#743,#346);
#284=LINE('',#745,#347);
#285=LINE('',#747,#348);
#286=LINE('',#749,#349);
#287=LINE('',#751,#350);
#288=LINE('',#752,#351);
#289=LINE('',#754,#352);
#290=LINE('',#758,#353);
#291=LINE('',#760,#354);
#292=LINE('',#762,#355);
#293=LINE('',#764,#356);
#294=LINE('',#766,#357);
#295=LINE('',#768,#358);
#296=LINE('',#770,#359);
#297=LINE('',#772,#360);
#298=LINE('',#776,#361);
#299=LINE('',#778,#362);
#300=LINE('',#780,#363);
#301=LINE('',#783,#364);
#302=LINE('',#785,#365);
#303=LINE('',#787,#366);
#304=LINE('',#790,#367);
#305=LINE('',#792,#368);
#306=LINE('',#794,#369);
#307=LINE('',#796,#370);
#308=LINE('',#798,#371);
#309=LINE('',#802,#372);
#310=LINE('',#805,#373);
#311=LINE('',#807,#374);
#312=LINE('',#809,#375);
#313=LINE('',#811,#376);
#314=LINE('',#813,#377);
#315=LINE('',#815,#378);
#316=LINE('',#817,#379);
#317=LINE('',#818,#380);
#318=VECTOR('',#560,1.);
#319=VECTOR('',#561,1.);
#320=VECTOR('',#562,1.);
#321=VECTOR('',#563,1.);
#322=VECTOR('',#564,1.);
#323=VECTOR('',#565,1.);
#324=VECTOR('',#566,1.);
#325=VECTOR('',#567,1.);
#326=VECTOR('',#570,1.);
#327=VECTOR('',#571,1.);
#328=VECTOR('',#572,1.);
#329=VECTOR('',#573,1.);
#330=VECTOR('',#576,1.);
#331=VECTOR('',#577,1.);
#332=VECTOR('',#578,1.);
#333=VECTOR('',#583,1.);
#334=VECTOR('',#584,1.);
#335=VECTOR('',#585,1.);
#336=VECTOR('',#588,1.);
#337=VECTOR('',#589,1.);
#338=VECTOR('',#590,1.);
#339=VECTOR('',#591,1.);
#340=VECTOR('',#592,1.);
#341=VECTOR('',#593,1.);
#342=VECTOR('',#594,1.);
#343=VECTOR('',#595,1.);
#344=VECTOR('',#596,1.);
#345=VECTOR('',#597,1.);
#346=VECTOR('',#598,1.);
#347=VECTOR('',#599,1.);
#348=VECTOR('',#602,1.);
#349=VECTOR('',#605,1.);
#350=VECTOR('',#606,1.);
#351=VECTOR('',#607,1.);
#352=VECTOR('',#608,1.);
#353=VECTOR('',#613,1.);
#354=VECTOR('',#614,1.);
#355=VECTOR('',#615,1.);
#356=VECTOR('',#618,1.);
#357=VECTOR('',#619,1.);
#358=VECTOR('',#622,1.);
#359=VECTOR('',#623,1.);
#360=VECTOR('',#626,1.);
#361=VECTOR('',#633,1.);
#362=VECTOR('',#634,1.);
#363=VECTOR('',#637,1.);
#364=VECTOR('',#642,1.);
#365=VECTOR('',#643,1.);
#366=VECTOR('',#646,1.);
#367=VECTOR('',#651,1.);
#368=VECTOR('',#652,1.);
#369=VECTOR('',#655,1.);
#370=VECTOR('',#656,1.);
#371=VECTOR('',#659,1.);
#372=VECTOR('',#666,1.);
#373=VECTOR('',#667,1.);
#374=VECTOR('',#668,1.);
#375=VECTOR('',#669,1.);
#376=VECTOR('',#672,1.);
#377=VECTOR('',#673,1.);
#378=VECTOR('',#674,1.);
#379=VECTOR('',#677,1.);
#380=VECTOR('',#678,1.);
#381=EDGE_LOOP('',(#17,#18,#19,#20,#21,#22,#23,#24));
#382=EDGE_LOOP('',(#25,#26,#27,#28));
#383=EDGE_LOOP('',(#29,#30,#31,#32));
#384=EDGE_LOOP('',(#33));
#385=EDGE_LOOP('',(#34,#35,#36,#37));
#386=EDGE_LOOP('',(#38,#39,#40,#41,#42,#43,#44,#45,#46,#47));
#387=EDGE_LOOP('',(#48,#49,#50,#51));
#388=EDGE_LOOP('',(#52,#53,#54,#55));
#389=EDGE_LOOP('',(#56,#57,#58,#59,#60,#61,#62,#63));
#390=EDGE_LOOP('',(#64));
#391=EDGE_LOOP('',(#65,#66,#67,#68));
#392=EDGE_LOOP('',(#69,#70,#71,#72));
#393=EDGE_LOOP('',(#73,#74,#75,#76));
#394=EDGE_LOOP('',(#77,#78,#79,#80));
#395=EDGE_LOOP('',(#81,#82,#83,#84));
#396=EDGE_LOOP('',(#85));
#397=EDGE_LOOP('',(#86));
#398=EDGE_LOOP('',(#87,#88,#89,#90,#91,#92));
#399=EDGE_LOOP('',(#93,#94,#95,#96));
#400=EDGE_LOOP('',(#97,#98,#99,#100));
#401=EDGE_LOOP('',(#101,#102,#103,#104));
#402=EDGE_LOOP('',(#105,#106,#107,#108));
#403=EDGE_LOOP('',(#109,#110,#111,#112));
#404=EDGE_LOOP('',(#113,#114,#115,#116));
#405=EDGE_LOOP('',(#117,#118,#119,#120));
#406=EDGE_LOOP('',(#121,#122,#123,#124));
#407=EDGE_LOOP('',(#125,#126,#127,#128));
#408=EDGE_LOOP('',(#129,#130,#131,#132));
#409=EDGE_LOOP('',(#133,#134,#135,#136));
#410=EDGE_LOOP('',(#137,#138,#139,#140));
#411=EDGE_LOOP('',(#141,#142,#143));
#412=EDGE_LOOP('',(#144,#145,#146));
#413=FACE_BOUND('',#381,.T.);
#414=FACE_BOUND('',#382,.T.);
#415=FACE_BOUND('',#383,.T.);
#416=FACE_BOUND('',#384,.T.);
#417=FACE_BOUND('',#385,.T.);
#418=FACE_BOUND('',#386,.T.);
#419=FACE_BOUND('',#387,.T.);
#420=FACE_BOUND('',#388,.T.);
#421=FACE_BOUND('',#389,.T.);
#422=FACE_BOUND('',#390,.T.);
#423=FACE_BOUND('',#391,.T.);
#424=FACE_BOUND('',#392,.T.);
#425=FACE_BOUND('',#393,.T.);
#426=FACE_BOUND('',#394,.T.);
#427=FACE_BOUND('',#395,.T.);
#428=FACE_BOUND('',#396,.T.);
#429=FACE_BOUND('',#397,.T.);
#430=FACE_BOUND('',#398,.T.);
#431=FACE_BOUND('',#399,.T.);
#432=FACE_BOUND('',#400,.T.);
#433=FACE_BOUND('',#401,.T.);
#434=FACE_BOUND('',#402,.T.);
#435=FACE_BOUND('',#403,.T.);
#436=FACE_BOUND('',#404,.T.);
#437=FACE_BOUND('',#405,.T.);
#438=FACE_BOUND('',#406,.T.);
#439=FACE_BOUND('',#407,.T.);
#440=FACE_BOUND('',#408,.T.);
#441=FACE_BOUND('',#409,.T.);
#442=FACE_BOUND('',#410,.T.);
#443=FACE_BOUND('',#411,.T.);
#444=FACE_BOUND('',#412,.T.);
#445=PLANE('',#525);
#446=PLANE('',#526);
#447=PLANE('',#527);
#448=PLANE('',#528);
#449=PLANE('',#530);
#450=PLANE('',#531);
#451=PLANE('',#532);
#452=PLANE('',#533);
#453=PLANE('',#535);
#454=PLANE('',#536);
#455=PLANE('',#537);
#456=PLANE('',#538);
#457=PLANE('',#540);
#458=PLANE('',#541);
#459=PLANE('',#542);
#460=PLANE('',#543);
#461=PLANE('',#544);
#462=PLANE('',#545);
#463=PLANE('',#546);
#464=PLANE('',#547);
#465=PLANE('',#548);
#466=PLANE('',#549);
#467=PLANE('',#551);
#468=PLANE('',#552);
#469=PLANE('',#553);
#470=PLANE('',#554);
#471=PLANE('',#555);
#472=ADVANCED_FACE('',(#413),#445,.F.);
#473=ADVANCED_FACE('',(#414),#446,.F.);
#474=ADVANCED_FACE('',(#415),#447,.T.);
#475=ADVANCED_FACE('',(#416,#417),#448,.T.);
#476=ADVANCED_FACE('',(#418,#419),#449,.T.);
#477=ADVANCED_FACE('',(#420),#450,.F.);
#478=ADVANCED_FACE('',(#421),#451,.F.);
#479=ADVANCED_FACE('',(#422,#423),#452,.T.);
#480=ADVANCED_FACE('',(#424),#453,.T.);
#481=ADVANCED_FACE('',(#425),#454,.T.);
#482=ADVANCED_FACE('',(#426),#455,.T.);
#483=ADVANCED_FACE('',(#427),#456,.T.);
#484=ADVANCED_FACE('',(#428,#429),#14,.F.);
#485=ADVANCED_FACE('',(#430),#457,.T.);
#486=ADVANCED_FACE('',(#431),#458,.T.);
#487=ADVANCED_FACE('',(#432),#459,.T.);
#488=ADVANCED_FACE('',(#433),#460,.T.);
#489=ADVANCED_FACE('',(#434),#461,.T.);
#490=ADVANCED_FACE('',(#435),#462,.T.);
#491=ADVANCED_FACE('',(#436),#463,.F.);
#492=ADVANCED_FACE('',(#437),#464,.F.);
#493=ADVANCED_FACE('',(#438),#465,.F.);
#494=ADVANCED_FACE('',(#439),#466,.T.);
#495=ADVANCED_FACE('',(#440),#467,.F.);
#496=ADVANCED_FACE('',(#441),#468,.T.);
#497=ADVANCED_FACE('',(#442),#469,.F.);
#498=ADVANCED_FACE('',(#443),#470,.F.);
#499=ADVANCED_FACE('',(#444),#471,.T.);
#500=CLOSED_SHELL('',(#472,#473,#474,#475,#476,#477,#478,#479,#480,#481,
#482,#483,#484,#485,#486,#487,#488,#489,#490,#491,#492,#493,#494));
#501=CLOSED_SHELL('',(#495,#496,#497,#498,#499));
#502=STYLED_ITEM('',(#504),#518);
#503=STYLED_ITEM('',(#505),#519);
#504=PRESENTATION_STYLE_ASSIGNMENT((#506));
#505=PRESENTATION_STYLE_ASSIGNMENT((#507));
#506=SURFACE_STYLE_USAGE(.BOTH.,#508);
#507=SURFACE_STYLE_USAGE(.BOTH.,#509);
#508=SURFACE_SIDE_STYLE('',(#510));
#509=SURFACE_SIDE_STYLE('',(#511));
#510=SURFACE_STYLE_FILL_AREA(#512);
#511=SURFACE_STYLE_FILL_AREA(#513);
#512=FILL_AREA_STYLE('',(#514));
#513=FILL_AREA_STYLE('',(#515));
#514=FILL_AREA_STYLE_COLOUR('',#516);
#515=FILL_AREA_STYLE_COLOUR('',#517);
#516=COLOUR_RGB('',0.615686274509804,0.811764705882353,0.929411764705882);
#517=COLOUR_RGB('',0.647058823529412,0.647058823529412,0.647058823529412);
#518=MANIFOLD_SOLID_BREP('Part 1',#500);
#519=MANIFOLD_SOLID_BREP('Part 2',#501);
#520=SHAPE_DEFINITION_REPRESENTATION(#833,#522);
#521=SHAPE_DEFINITION_REPRESENTATION(#834,#523);
#522=SHAPE_REPRESENTATION('Part 1',(#524),#823);
#523=SHAPE_REPRESENTATION('Part 2',(#550),#824);
#524=AXIS2_PLACEMENT_3D('',#683,#556,#557);
#525=AXIS2_PLACEMENT_3D('',#684,#558,#559);
#526=AXIS2_PLACEMENT_3D('',#701,#568,#569);
#527=AXIS2_PLACEMENT_3D('',#709,#574,#575);
#528=AXIS2_PLACEMENT_3D('',#715,#579,#580);
#529=AXIS2_PLACEMENT_3D('',#716,#581,#582);
#530=AXIS2_PLACEMENT_3D('',#723,#586,#587);
#531=AXIS2_PLACEMENT_3D('',#746,#600,#601);
#532=AXIS2_PLACEMENT_3D('',#748,#603,#604);
#533=AXIS2_PLACEMENT_3D('',#755,#609,#610);
#534=AXIS2_PLACEMENT_3D('',#756,#611,#612);
#535=AXIS2_PLACEMENT_3D('',#763,#616,#617);
#536=AXIS2_PLACEMENT_3D('',#767,#620,#621);
#537=AXIS2_PLACEMENT_3D('',#771,#624,#625);
#538=AXIS2_PLACEMENT_3D('',#773,#627,#628);
#539=AXIS2_PLACEMENT_3D('',#774,#629,#630);
#540=AXIS2_PLACEMENT_3D('',#775,#631,#632);
#541=AXIS2_PLACEMENT_3D('',#779,#635,#636);
#542=AXIS2_PLACEMENT_3D('',#781,#638,#639);
#543=AXIS2_PLACEMENT_3D('',#782,#640,#641);
#544=AXIS2_PLACEMENT_3D('',#786,#644,#645);
#545=AXIS2_PLACEMENT_3D('',#788,#647,#648);
#546=AXIS2_PLACEMENT_3D('',#789,#649,#650);
#547=AXIS2_PLACEMENT_3D('',#793,#653,#654);
#548=AXIS2_PLACEMENT_3D('',#797,#657,#658);
#549=AXIS2_PLACEMENT_3D('',#799,#660,#661);
#550=AXIS2_PLACEMENT_3D('',#800,#662,#663);
#551=AXIS2_PLACEMENT_3D('',#801,#664,#665);
#552=AXIS2_PLACEMENT_3D('',#810,#670,#671);
#553=AXIS2_PLACEMENT_3D('',#816,#675,#676);
#554=AXIS2_PLACEMENT_3D('',#819,#679,#680);
#555=AXIS2_PLACEMENT_3D('',#820,#681,#682);
#556=DIRECTION('',(0.,0.,1.));
#557=DIRECTION('',(1.,0.,0.));
#558=DIRECTION('',(0.,1.,0.));
#559=DIRECTION('',(0.,0.,1.));
#560=DIRECTION('',(0.,0.,1.));
#561=DIRECTION('',(1.,0.,0.));
#562=DIRECTION('',(0.,0.,-1.));
#563=DIRECTION('',(-1.,0.,0.));
#564=DIRECTION('',(0.,0.,-1.));
#565=DIRECTION('',(-1.,0.,0.));
#566=DIRECTION('',(0.,0.,1.));
#567=DIRECTION('',(-1.,0.,0.));
#568=DIRECTION('',(0.,1.,0.));
#569=DIRECTION('',(0.,0.,1.));
#570=DIRECTION('',(0.,0.,-1.));
#571=DIRECTION('',(-1.,0.,0.));
#572=DIRECTION('',(0.,0.,-1.));
#573=DIRECTION('',(1.,0.,0.));
#574=DIRECTION('',(1.,0.,0.));
#575=DIRECTION('',(0.,1.,0.));
#576=DIRECTION('',(0.,0.,-1.));
#577=DIRECTION('',(0.,-1.,0.));
#578=DIRECTION('',(0.,1.,0.));
#579=DIRECTION('',(0.,1.,0.));
#580=DIRECTION('',(0.,0.,1.));
#581=DIRECTION('',(0.,1.,0.));
#582=DIRECTION('',(0.,0.,1.));
#583=DIRECTION('',(0.,0.,-1.));
#584=DIRECTION('',(1.,0.,0.));
#585=DIRECTION('',(-1.,0.,0.));
#586=DIRECTION('',(0.,0.,1.));
#587=DIRECTION('',(1.,0.,0.));
#588=DIRECTION('',(0.,1.,0.));
#589=DIRECTION('',(1.,0.,0.));
#590=DIRECTION('',(0.,1.,0.));
#591=DIRECTION('',(0.,1.,0.));
#592=DIRECTION('',(-1.,0.,0.));
#593=DIRECTION('',(0.,1.,0.));
#594=DIRECTION('',(0.,1.,0.));
#595=DIRECTION('',(-1.,0.,0.));
#596=DIRECTION('',(0.,1.,0.));
#597=DIRECTION('',(1.,0.,0.));
#598=DIRECTION('',(0.,-1.,0.));
#599=DIRECTION('',(-1.,0.,0.));
#600=DIRECTION('',(0.,0.,1.));
#601=DIRECTION('',(1.,0.,0.));
#602=DIRECTION('',(0.,1.,0.));
#603=DIRECTION('',(1.,0.,0.));
#604=DIRECTION('',(0.,1.,0.));
#605=DIRECTION('',(0.,1.,-1.3608785960239E-16));
#606=DIRECTION('',(0.,0.,1.));
#607=DIRECTION('',(0.,0.,-1.));
#608=DIRECTION('',(0.,-1.,0.));
#609=DIRECTION('',(0.,-1.,0.));
#610=DIRECTION('',(0.,0.,-1.));
#611=DIRECTION('',(0.,-1.,0.));
#612=DIRECTION('',(0.,0.,-1.));
#613=DIRECTION('',(0.,0.,1.));
#614=DIRECTION('',(1.,0.,0.));
#615=DIRECTION('',(0.,0.,1.));
#616=DIRECTION('',(1.,0.,0.));
#617=DIRECTION('',(0.,0.,-1.));
#618=DIRECTION('',(0.,0.,1.));
#619=DIRECTION('',(0.,1.,0.));
#620=DIRECTION('',(0.,1.,0.));
#621=DIRECTION('',(0.,0.,1.));
#622=DIRECTION('',(0.,0.,1.));
#623=DIRECTION('',(-1.,0.,0.));
#624=DIRECTION('',(-1.,0.,0.));
#625=DIRECTION('',(0.,0.,1.));
#626=DIRECTION('',(0.,-1.,0.));
#627=DIRECTION('',(0.,0.,1.));
#628=DIRECTION('',(1.,0.,0.));
#629=DIRECTION('',(0.,1.,0.));
#630=DIRECTION('',(0.,0.,1.));
#631=DIRECTION('',(0.,0.,-1.));
#632=DIRECTION('',(-1.,0.,0.));
#633=DIRECTION('',(1.,0.,0.));
#634=DIRECTION('',(0.,-1.,0.));
#635=DIRECTION('',(0.,1.,0.));
#636=DIRECTION('',(-1.,0.,0.));
#637=DIRECTION('',(0.,0.,-1.));
#638=DIRECTION('',(1.,0.,0.));
#639=DIRECTION('',(0.,1.,0.));
#640=DIRECTION('',(0.,-1.3608785960239E-16,-1.));
#641=DIRECTION('',(0.,1.,-1.3608785960239E-16));
#642=DIRECTION('',(0.,1.,-1.3608785960239E-16));
#643=DIRECTION('',(1.,0.,0.));
#644=DIRECTION('',(0.,1.,0.));
#645=DIRECTION('',(0.,0.,1.));
#646=DIRECTION('',(0.,0.,1.));
#647=DIRECTION('',(-1.,0.,0.));
#648=DIRECTION('',(0.,-1.,0.));
#649=DIRECTION('',(1.,0.,0.));
#650=DIRECTION('',(0.,0.,-1.));
#651=DIRECTION('',(0.,1.,0.));
#652=DIRECTION('',(0.,0.,-1.));
#653=DIRECTION('',(0.,0.,1.));
#654=DIRECTION('',(1.,0.,0.));
#655=DIRECTION('',(0.,1.,0.));
#656=DIRECTION('',(1.,0.,0.));
#657=DIRECTION('',(-1.,0.,0.));
#658=DIRECTION('',(0.,0.,1.));
#659=DIRECTION('',(0.,0.,1.));
#660=DIRECTION('',(0.,-1.,0.));
#661=DIRECTION('',(1.,0.,0.));
#662=DIRECTION('',(0.,0.,1.));
#663=DIRECTION('',(1.,0.,0.));
#664=DIRECTION('',(0.,0.352716907934257,-0.935730080128504));
#665=DIRECTION('',(0.,0.935730080128504,0.352716907934257));
#666=DIRECTION('',(0.,0.935730080128504,0.352716907934257));
#667=DIRECTION('',(1.,0.,0.));
#668=DIRECTION('',(0.,0.935730080128504,0.352716907934257));
#669=DIRECTION('',(1.,0.,0.));
#670=DIRECTION('',(0.,0.,-1.));
#671=DIRECTION('',(-1.,0.,0.));
#672=DIRECTION('',(0.,1.,0.));
#673=DIRECTION('',(0.,1.,0.));
#674=DIRECTION('',(1.,0.,0.));
#675=DIRECTION('',(0.,-0.352716907934257,-0.935730080128504));
#676=DIRECTION('',(0.,0.935730080128504,-0.352716907934257));
#677=DIRECTION('',(0.,0.935730080128504,-0.352716907934257));
#678=DIRECTION('',(0.,0.935730080128504,-0.352716907934257));
#679=DIRECTION('',(1.,0.,0.));
#680=DIRECTION('',(0.,1.,0.));
#681=DIRECTION('',(1.,0.,0.));
#682=DIRECTION('',(0.,1.,0.));
#683=CARTESIAN_POINT('',(0.,0.,0.));
#684=CARTESIAN_POINT('',(0.0762,-0.0254941694438457,0.));
#685=CARTESIAN_POINT('',(0.0762,-0.0254941694438457,0.025226715442007));
#686=CARTESIAN_POINT('',(0.0762,-0.0254941694438457,0.0238368780393705));
#687=CARTESIAN_POINT('',(0.0762,-0.0254941694438457,0.0266165528446436));
#688=CARTESIAN_POINT('',(0.0381,-0.0254941694438457,0.0238368780393705));
#689=CARTESIAN_POINT('',(0.,-0.0254941694438457,0.0238368780393705));
#690=CARTESIAN_POINT('',(0.,-0.0254941694438457,0.));
#691=CARTESIAN_POINT('',(0.,-0.0254941694438457,-0.0266165528446436));
#692=CARTESIAN_POINT('',(0.0762,-0.0254941694438457,-0.0266165528446436));
#693=CARTESIAN_POINT('',(0.0762,-0.0254941694438457,-0.0266165528446436));
#694=CARTESIAN_POINT('',(0.0762,-0.0254941694438457,0.));
#695=CARTESIAN_POINT('',(0.0762,-0.0254941694438457,0.0237350779220002));
#696=CARTESIAN_POINT('',(0.076454,-0.0254941694438457,0.0237350779220002));
#697=CARTESIAN_POINT('',(0.076454,-0.0254941694438457,0.0237350779220002));
#698=CARTESIAN_POINT('',(0.076454,-0.0254941694438457,0.0251758153833219));
#699=CARTESIAN_POINT('',(0.076454,-0.0254941694438457,0.0266165528446436));
#700=CARTESIAN_POINT('',(0.0762,-0.0254941694438457,0.0266165528446436));
#701=CARTESIAN_POINT('',(0.0762,-0.0254941694438457,0.));
#702=CARTESIAN_POINT('',(0.,-0.0254941694438457,0.025226715442007));
#703=CARTESIAN_POINT('',(4.16333634234433E-17,-0.0254941694438457,0.0266165528446436));
#704=CARTESIAN_POINT('',(0.0762,-0.0254941694438457,0.0266165528446436));
#705=CARTESIAN_POINT('',(-0.000254,-0.0254941694438457,0.0266165528446436));
#706=CARTESIAN_POINT('',(-0.000254,-0.0254941694438457,0.));
#707=CARTESIAN_POINT('',(-0.000254,-0.0254941694438457,0.0238368780393705));
#708=CARTESIAN_POINT('',(-0.000254,-0.0254941694438457,0.0238368780393705));
#709=CARTESIAN_POINT('',(0.0762,0.,0.));
#710=CARTESIAN_POINT('',(0.0762,0.0254941694438457,0.));
#711=CARTESIAN_POINT('',(0.0762,0.0254941694438457,0.0237350779220002));
#712=CARTESIAN_POINT('',(0.0762,0.0254941694438457,-0.0266165528446436));
#713=CARTESIAN_POINT('',(0.0762,0.000127000000000002,0.0237350779220002));
#714=CARTESIAN_POINT('',(0.0762,0.,-0.0266165528446436));
#715=CARTESIAN_POINT('',(0.0762,0.0254941694438457,0.));
#716=CARTESIAN_POINT('',(0.038219023706525,0.0254941694438457,0.0100997959660286));
#717=CARTESIAN_POINT('',(0.038219023706525,0.0254941694438457,0.0162906937370215));
#718=CARTESIAN_POINT('',(0.,0.0254941694438457,0.));
#719=CARTESIAN_POINT('',(0.,0.0254941694438457,0.0237350779220002));
#720=CARTESIAN_POINT('',(0.,0.0254941694438457,-0.0266165528446436));
#721=CARTESIAN_POINT('',(0.0381,0.0254941694438457,0.0237350779220002));
#722=CARTESIAN_POINT('',(0.0762,0.0254941694438457,-0.0266165528446436));
#723=CARTESIAN_POINT('',(0.0762,0.,0.0266165528446436));
#724=CARTESIAN_POINT('',(0.,0.,0.0266165528446436));
#725=CARTESIAN_POINT('',(0.,0.0254941694438457,0.0266165528446436));
#726=CARTESIAN_POINT('',(0.,0.0257481694438457,0.0266165528446436));
#727=CARTESIAN_POINT('',(-0.000254,0.0254941694438457,0.0266165528446436));
#728=CARTESIAN_POINT('',(-0.000254,0.0254941694438457,0.0266165528446436));
#729=CARTESIAN_POINT('',(-0.000254,0.,0.0266165528446436));
#730=CARTESIAN_POINT('',(2.77555756156289E-17,-0.0257481694438457,0.0266165528446436));
#731=CARTESIAN_POINT('',(2.77555756156289E-17,-0.0257481694438457,0.0266165528446436));
#732=CARTESIAN_POINT('',(0.0762,-0.0257481694438457,0.0266165528446436));
#733=CARTESIAN_POINT('',(0.0762,-0.0257481694438457,0.0266165528446436));
#734=CARTESIAN_POINT('',(0.0762,-0.0257481694438457,0.0266165528446436));
#735=CARTESIAN_POINT('',(0.076454,0.000127000000000002,0.0266165528446436));
#736=CARTESIAN_POINT('',(0.076454,0.0257481694438457,0.0266165528446436));
#737=CARTESIAN_POINT('',(0.0762,0.0257481694438457,0.0266165528446436));
#738=CARTESIAN_POINT('',(0.00401651062821545,0.000443401590633701,0.0266165528446436));
#739=CARTESIAN_POINT('',(0.00401651062821545,-0.0206755997111708,0.0266165528446436));
#740=CARTESIAN_POINT('',(0.00401651062821545,0.0215624028924382,0.0266165528446436));
#741=CARTESIAN_POINT('',(0.0377145140963285,0.0215624028924382,0.0266165528446436));
#742=CARTESIAN_POINT('',(0.0714125175644416,0.0215624028924382,0.0266165528446436));
#743=CARTESIAN_POINT('',(0.0714125175644416,0.000443401590633701,0.0266165528446436));
#744=CARTESIAN_POINT('',(0.0714125175644416,-0.0206755997111708,0.0266165528446436));
#745=CARTESIAN_POINT('',(0.0377145140963285,-0.0206755997111708,0.0266165528446436));
#746=CARTESIAN_POINT('',(0.0762,0.,-0.0266165528446436));
#747=CARTESIAN_POINT('',(0.,0.,-0.0266165528446436));
#748=CARTESIAN_POINT('',(0.,0.,0.));
#749=CARTESIAN_POINT('',(0.,0.,0.0238368780393705));
#750=CARTESIAN_POINT('',(0.,0.0254941694438457,0.0238368780393705));
#751=CARTESIAN_POINT('',(0.,0.0254941694438457,0.025226715442007));
#752=CARTESIAN_POINT('',(0.,0.0257481694438457,0.));
#753=CARTESIAN_POINT('',(0.,0.0257481694438457,0.0237350779220002));
#754=CARTESIAN_POINT('',(0.,0.0257481694438457,0.0237350779220002));
#755=CARTESIAN_POINT('',(0.0377145140963285,0.0215624028924382,-0.0175794471553564));
#756=CARTESIAN_POINT('',(0.038219023706525,0.0215624028924382,0.0100997959660286));
#757=CARTESIAN_POINT('',(0.038219023706525,0.0215624028924382,0.0039088981950356));
#758=CARTESIAN_POINT('',(0.00401651062821545,0.0215624028924382,-0.0175794471553564));
#759=CARTESIAN_POINT('',(0.00401651062821545,0.0215624028924382,-0.0175794471553564));
#760=CARTESIAN_POINT('',(0.0377145140963285,0.0215624028924382,-0.0175794471553564));
#761=CARTESIAN_POINT('',(0.0714125175644416,0.0215624028924382,-0.0175794471553564));
#762=CARTESIAN_POINT('',(0.0714125175644416,0.0215624028924382,-0.0175794471553564));
#763=CARTESIAN_POINT('',(0.00401651062821545,0.000443401590633701,-0.0175794471553564));
#764=CARTESIAN_POINT('',(0.00401651062821545,-0.0206755997111708,-0.0175794471553564));
#765=CARTESIAN_POINT('',(0.00401651062821545,-0.0206755997111708,-0.0175794471553564));
#766=CARTESIAN_POINT('',(0.00401651062821545,0.000443401590633701,-0.0175794471553564));
#767=CARTESIAN_POINT('',(0.0377145140963285,-0.0206755997111708,-0.0175794471553564));
#768=CARTESIAN_POINT('',(0.0714125175644416,-0.0206755997111708,-0.0175794471553564));
#769=CARTESIAN_POINT('',(0.0714125175644416,-0.0206755997111708,-0.0175794471553564));
#770=CARTESIAN_POINT('',(0.0377145140963285,-0.0206755997111708,-0.0175794471553564));
#771=CARTESIAN_POINT('',(0.0714125175644416,0.000443401590633701,-0.0175794471553564));
#772=CARTESIAN_POINT('',(0.0714125175644416,0.000443401590633701,-0.0175794471553564));
#773=CARTESIAN_POINT('',(0.0381,0.,-0.0175794471553564));
#774=CARTESIAN_POINT('',(0.038219023706525,9.41694438457465E-5,0.0100997959660286));
#775=CARTESIAN_POINT('',(0.0381,0.0257481694438457,0.0237350779220002));
#776=CARTESIAN_POINT('',(0.0381,0.0257481694438457,0.0237350779220002));
#777=CARTESIAN_POINT('',(0.076454,0.0257481694438457,0.0237350779220002));
#778=CARTESIAN_POINT('',(0.076454,0.000127000000000002,0.0237350779220002));
#779=CARTESIAN_POINT('',(0.0381,0.0257481694438457,0.));
#780=CARTESIAN_POINT('',(0.076454,0.0257481694438457,0.0251758153833219));
#781=CARTESIAN_POINT('',(0.076454,0.000127000000000002,0.029980739798785));
#782=CARTESIAN_POINT('',(-0.000254,0.,0.0238368780393705));
#783=CARTESIAN_POINT('',(-0.000254,0.,0.0238368780393705));
#784=CARTESIAN_POINT('',(-0.000254,0.0254941694438457,0.0238368780393705));
#785=CARTESIAN_POINT('',(-0.000254,0.0254941694438457,0.0238368780393705));
#786=CARTESIAN_POINT('',(-0.000254,0.0254941694438457,0.025226715442007));
#787=CARTESIAN_POINT('',(-0.000254,0.0254941694438457,0.025226715442007));
#788=CARTESIAN_POINT('',(-0.000254,0.000126999999999999,0.));
#789=CARTESIAN_POINT('',(0.,-0.0257481694438457,0.025226715442007));
#790=CARTESIAN_POINT('',(0.,-0.0257481694438457,0.0238368780393705));
#791=CARTESIAN_POINT('',(0.,-0.0257481694438457,0.0238368780393705));
#792=CARTESIAN_POINT('',(0.,-0.0257481694438457,0.025226715442007));
#793=CARTESIAN_POINT('',(0.0381,-0.0257481694438457,0.0238368780393705));
#794=CARTESIAN_POINT('',(0.0762,-0.0257481694438457,0.0238368780393705));
#795=CARTESIAN_POINT('',(0.0762,-0.0257481694438457,0.0238368780393705));
#796=CARTESIAN_POINT('',(0.0381,-0.0257481694438457,0.0238368780393705));
#797=CARTESIAN_POINT('',(0.0762,-0.0257481694438457,0.025226715442007));
#798=CARTESIAN_POINT('',(0.0762,-0.0257481694438457,0.025226715442007));
#799=CARTESIAN_POINT('',(0.0381,-0.0257481694438457,0.));
#800=CARTESIAN_POINT('',(0.,0.,0.));
#801=CARTESIAN_POINT('',(0.,-0.0127470847219229,0.0314214772601066));
#802=CARTESIAN_POINT('',(0.0762,-0.0127470847219229,0.0314214772601066));
#803=CARTESIAN_POINT('',(0.0762,-0.0254941694438457,0.0266165528446436));
#804=CARTESIAN_POINT('',(0.0762,-5.20417042793042E-18,0.0362264016755697));
#805=CARTESIAN_POINT('',(0.,-5.20417042793042E-18,0.0362264016755697));
#806=CARTESIAN_POINT('',(0.,-5.20417042793042E-18,0.0362264016755697));
#807=CARTESIAN_POINT('',(0.,-0.0127470847219229,0.0314214772601066));
#808=CARTESIAN_POINT('',(0.,-0.0254941694438457,0.0266165528446436));
#809=CARTESIAN_POINT('',(0.,-0.0254941694438457,0.0266165528446436));
#810=CARTESIAN_POINT('',(0.,0.,0.0266165528446436));
#811=CARTESIAN_POINT('',(0.0762,0.,0.0266165528446436));
#812=CARTESIAN_POINT('',(0.0762,0.0254941694438457,0.0266165528446436));
#813=CARTESIAN_POINT('',(0.,0.,0.0266165528446436));
#814=CARTESIAN_POINT('',(0.,0.0254941694438457,0.0266165528446436));
#815=CARTESIAN_POINT('',(0.,0.0254941694438457,0.0266165528446436));
#816=CARTESIAN_POINT('',(0.,0.0127470847219229,0.0314214772601066));
#817=CARTESIAN_POINT('',(0.0762,0.0127470847219229,0.0314214772601066));
#818=CARTESIAN_POINT('',(0.,0.0127470847219229,0.0314214772601066));
#819=CARTESIAN_POINT('',(0.,0.,0.00480492441546305));
#820=CARTESIAN_POINT('',(0.0762,0.,0.00480492441546305));
#821=MECHANICAL_DESIGN_GEOMETRIC_PRESENTATION_REPRESENTATION('',(#502),
#823);
#822=MECHANICAL_DESIGN_GEOMETRIC_PRESENTATION_REPRESENTATION('',(#503),
#824);
#823=(
GEOMETRIC_REPRESENTATION_CONTEXT(3)
GLOBAL_UNCERTAINTY_ASSIGNED_CONTEXT((#825))
GLOBAL_UNIT_ASSIGNED_CONTEXT((#831,#829,#827))
REPRESENTATION_CONTEXT('Part 1','TOP_LEVEL_ASSEMBLY_PART')
);
#824=(
GEOMETRIC_REPRESENTATION_CONTEXT(3)
GLOBAL_UNCERTAINTY_ASSIGNED_CONTEXT((#826))
GLOBAL_UNIT_ASSIGNED_CONTEXT((#832,#830,#828))
REPRESENTATION_CONTEXT('Part 2','TOP_LEVEL_ASSEMBLY_PART')
);
#825=UNCERTAINTY_MEASURE_WITH_UNIT(LENGTH_MEASURE(1.E-8),#831,
'DISTANCE_ACCURACY_VALUE','Maximum Tolerance applied to model');
#826=UNCERTAINTY_MEASURE_WITH_UNIT(LENGTH_MEASURE(1.E-8),#832,
'DISTANCE_ACCURACY_VALUE','Maximum Tolerance applied to model');
#827=(
NAMED_UNIT(*)
SI_UNIT($,.STERADIAN.)
SOLID_ANGLE_UNIT()
);
#828=(
NAMED_UNIT(*)
SI_UNIT($,.STERADIAN.)
SOLID_ANGLE_UNIT()
);
#829=(
NAMED_UNIT(*)
PLANE_ANGLE_UNIT()
SI_UNIT($,.RADIAN.)
);
#830=(
NAMED_UNIT(*)
PLANE_ANGLE_UNIT()
SI_UNIT($,.RADIAN.)
);
#831=(
LENGTH_UNIT()
NAMED_UNIT(*)
SI_UNIT($,.METRE.)
);
#832=(
LENGTH_UNIT()
NAMED_UNIT(*)
SI_UNIT($,.METRE.)
);
#833=PRODUCT_DEFINITION_SHAPE('','',#835);
#834=PRODUCT_DEFINITION_SHAPE('','',#836);
#835=PRODUCT_DEFINITION('','',#839,#837);
#836=PRODUCT_DEFINITION('','',#840,#838);
#837=PRODUCT_DEFINITION_CONTEXT('',#851,'design');
#838=PRODUCT_DEFINITION_CONTEXT('',#852,'design');
#839=PRODUCT_DEFINITION_FORMATION_WITH_SPECIFIED_SOURCE('','',#843,
 .NOT_KNOWN.);
#840=PRODUCT_DEFINITION_FORMATION_WITH_SPECIFIED_SOURCE('','',#844,
 .NOT_KNOWN.);
#841=PRODUCT_RELATED_PRODUCT_CATEGORY('','',(#843));
#842=PRODUCT_RELATED_PRODUCT_CATEGORY('','',(#844));
#843=PRODUCT('Part 1','Part 1','Part 1',(#847));
#844=PRODUCT('Part 2','Part 2','Part 2',(#848));
#845=PRODUCT_CATEGORY('','');
#846=PRODUCT_CATEGORY('','');
#847=PRODUCT_CONTEXT('',#851,'mechanical');
#848=PRODUCT_CONTEXT('',#852,'mechanical');
#849=APPLICATION_PROTOCOL_DEFINITION('international standard',
'ap242_managed_model_based_3d_engineering',2020,#851);
#850=APPLICATION_PROTOCOL_DEFINITION('international standard',
'ap242_managed_model_based_3d_engineering',2020,#852);
#851=APPLICATION_CONTEXT('managed model based 3d engineering');
#852=APPLICATION_CONTEXT('managed model based 3d engineering');
ENDSEC;
END-ISO-10303-21;
